<svg xmlns="http://www.w3.org/2000/svg" xmlns:xlink="http://www.w3.org/1999/xlink" width="374" zoomAndPan="magnify" viewBox="0 0 280.5 107.999999" height="144" preserveAspectRatio="xMidYMid meet" version="1.2"><defs><clipPath id="71448172e4"><path d="M 39 0.0976562 L 47 0.0976562 L 47 14 L 39 14 Z M 39 0.0976562 "/></clipPath><clipPath id="7d09a22783"><path d="M 30.972656 6 L 43 6 L 43 15 L 30.972656 15 Z M 30.972656 6 "/></clipPath><clipPath id="4e415bcf13"><path d="M 42 6 L 54.929688 6 L 54.929688 15 L 42 15 Z M 42 6 "/></clipPath><clipPath id="8d801ad72b"><path d="M 8.101562 46 L 19 46 L 19 53 L 8.101562 53 Z M 8.101562 46 "/></clipPath><clipPath id="12395dbd3c"><path d="M 37 17.878906 L 45 17.878906 L 45 26 L 37 26 Z M 37 17.878906 "/></clipPath><clipPath id="3edb4da9fe"><path d="M 45 17.878906 L 49 17.878906 L 49 26 L 45 26 Z M 45 17.878906 "/></clipPath></defs><g id="698afd472a"><g clip-rule="nonzero" clip-path="url(#71448172e4)"><path style=" stroke:none;fill-rule:nonzero;fill:#d4af37;fill-opacity:1;" d="M 42.972656 13.972656 L 42.871094 13.894531 C 42.355469 13.5 41.882812 13.050781 41.46875 12.550781 C 41.050781 12.050781 40.691406 11.503906 40.398438 10.921875 C 40.097656 10.332031 39.867188 9.707031 39.714844 9.066406 C 39.554688 8.402344 39.472656 7.722656 39.472656 7.035156 C 39.472656 6.347656 39.554688 5.664062 39.714844 5.003906 C 39.867188 4.363281 40.097656 3.738281 40.398438 3.148438 C 40.691406 2.566406 41.050781 2.019531 41.46875 1.519531 C 41.882812 1.019531 42.355469 0.570312 42.871094 0.175781 L 42.972656 0.0976562 L 43.078125 0.175781 C 43.59375 0.570312 44.0625 1.019531 44.480469 1.519531 C 44.894531 2.019531 45.257812 2.566406 45.550781 3.148438 C 45.847656 3.738281 46.078125 4.363281 46.234375 5.003906 C 46.394531 5.664062 46.476562 6.347656 46.476562 7.035156 C 46.476562 7.722656 46.394531 8.402344 46.234375 9.066406 C 46.078125 9.707031 45.847656 10.332031 45.550781 10.921875 C 45.257812 11.503906 44.894531 12.050781 44.480469 12.550781 C 44.0625 13.050781 43.59375 13.5 43.078125 13.894531 Z M 42.972656 0.527344 C 40.964844 2.109375 39.816406 4.472656 39.816406 7.035156 C 39.816406 9.59375 40.964844 11.960938 42.972656 13.542969 C 44.984375 11.960938 46.132812 9.59375 46.132812 7.035156 C 46.132812 4.472656 44.984375 2.109375 42.972656 0.527344 Z M 42.972656 0.527344 "/><path style=" stroke:none;fill-rule:nonzero;fill:#d4af37;fill-opacity:1;" d="M 42.972656 13.972656 L 42.871094 13.894531 C 42.355469 13.5 41.882812 13.050781 41.46875 12.550781 C 41.050781 12.050781 40.691406 11.503906 40.398438 10.921875 C 40.097656 10.332031 39.867188 9.707031 39.714844 9.066406 C 39.554688 8.402344 39.472656 7.722656 39.472656 7.035156 C 39.472656 6.347656 39.554688 5.664062 39.714844 5.003906 C 39.867188 4.363281 40.097656 3.738281 40.398438 3.148438 C 40.691406 2.566406 41.050781 2.019531 41.46875 1.519531 C 41.882812 1.019531 42.355469 0.570312 42.871094 0.175781 L 42.972656 0.0976562 L 43.078125 0.175781 C 43.59375 0.570312 44.0625 1.019531 44.480469 1.519531 C 44.894531 2.019531 45.257812 2.566406 45.550781 3.148438 C 45.847656 3.738281 46.078125 4.363281 46.234375 5.003906 C 46.394531 5.664062 46.476562 6.347656 46.476562 7.035156 C 46.476562 7.722656 46.394531 8.402344 46.234375 9.066406 C 46.078125 9.707031 45.847656 10.332031 45.550781 10.921875 C 45.257812 11.503906 44.894531 12.050781 44.480469 12.550781 C 44.0625 13.050781 43.59375 13.5 43.078125 13.894531 Z M 42.972656 0.527344 C 40.964844 2.109375 39.816406 4.472656 39.816406 7.035156 C 39.816406 9.59375 40.964844 11.960938 42.972656 13.542969 C 44.984375 11.960938 46.132812 9.59375 46.132812 7.035156 C 46.132812 4.472656 44.984375 2.109375 42.972656 0.527344 Z M 42.972656 0.527344 "/></g><path style=" stroke:none;fill-rule:nonzero;fill:#d4af37;fill-opacity:1;" d="M 43 13.910156 L 42.871094 13.894531 C 42.226562 13.8125 41.59375 13.65625 40.984375 13.433594 C 40.371094 13.207031 39.785156 12.914062 39.242188 12.558594 C 38.6875 12.195312 38.175781 11.769531 37.722656 11.289062 C 37.253906 10.796875 36.839844 10.246094 36.496094 9.652344 C 36.15625 9.058594 35.882812 8.425781 35.691406 7.773438 C 35.503906 7.140625 35.390625 6.484375 35.355469 5.824219 C 35.320312 5.175781 35.355469 4.519531 35.46875 3.878906 C 35.578125 3.238281 35.761719 2.613281 36.011719 2.011719 L 36.0625 1.894531 L 36.191406 1.910156 C 36.832031 1.992188 37.46875 2.148438 38.074219 2.371094 C 38.6875 2.597656 39.273438 2.890625 39.816406 3.246094 C 40.371094 3.609375 40.882812 4.035156 41.339844 4.511719 C 41.808594 5.003906 42.21875 5.558594 42.5625 6.152344 C 42.90625 6.746094 43.175781 7.378906 43.367188 8.03125 C 43.554688 8.664062 43.667969 9.320312 43.707031 9.980469 C 43.742188 10.628906 43.703125 11.285156 43.59375 11.925781 C 43.480469 12.566406 43.300781 13.191406 43.050781 13.789062 Z M 36.277344 2.265625 C 35.328125 4.640625 35.515625 7.261719 36.792969 9.480469 C 38.074219 11.699219 40.253906 13.171875 42.785156 13.535156 C 43.730469 11.160156 43.546875 8.539062 42.265625 6.324219 C 40.984375 4.105469 38.808594 2.632812 36.277344 2.265625 Z M 36.277344 2.265625 "/><g clip-rule="nonzero" clip-path="url(#7d09a22783)"><path style=" stroke:none;fill-rule:nonzero;fill:#d4af37;fill-opacity:1;" d="M 42.988281 13.84375 L 42.871094 13.894531 C 42.273438 14.144531 41.644531 14.328125 41.007812 14.4375 C 40.363281 14.546875 39.710938 14.585938 39.058594 14.550781 C 38.398438 14.511719 37.742188 14.402344 37.109375 14.214844 C 36.457031 14.019531 35.824219 13.75 35.230469 13.40625 C 34.636719 13.0625 34.085938 12.652344 33.59375 12.183594 C 33.113281 11.726562 32.6875 11.214844 32.324219 10.660156 C 31.96875 10.117188 31.675781 9.53125 31.449219 8.921875 C 31.226562 8.3125 31.070312 7.675781 30.988281 7.035156 L 30.972656 6.90625 L 31.09375 6.855469 C 31.691406 6.605469 32.316406 6.421875 32.957031 6.3125 C 33.597656 6.203125 34.253906 6.164062 34.902344 6.199219 C 35.5625 6.234375 36.21875 6.347656 36.851562 6.535156 C 37.503906 6.726562 38.136719 7 38.730469 7.34375 C 39.328125 7.6875 39.878906 8.097656 40.371094 8.566406 C 40.847656 9.019531 41.273438 9.535156 41.636719 10.085938 C 41.992188 10.632812 42.285156 11.21875 42.511719 11.828125 C 42.734375 12.4375 42.890625 13.070312 42.972656 13.714844 Z M 31.347656 7.121094 C 31.710938 9.652344 33.183594 11.828125 35.402344 13.109375 C 37.621094 14.390625 40.242188 14.578125 42.617188 13.628906 C 42.25 11.097656 40.777344 8.917969 38.5625 7.640625 C 36.34375 6.359375 33.722656 6.171875 31.347656 7.121094 Z M 31.347656 7.121094 "/></g><g clip-rule="nonzero" clip-path="url(#4e415bcf13)"><path style=" stroke:none;fill-rule:nonzero;fill:#d4af37;fill-opacity:1;" d="M 42.851562 14.023438 L 42.871094 13.894531 C 42.953125 13.25 43.109375 12.617188 43.332031 12.007812 C 43.558594 11.398438 43.851562 10.8125 44.207031 10.265625 C 44.566406 9.714844 44.996094 9.203125 45.472656 8.746094 C 45.964844 8.277344 46.515625 7.867188 47.113281 7.523438 C 47.707031 7.179688 48.335938 6.90625 48.988281 6.714844 C 49.625 6.527344 50.28125 6.414062 50.941406 6.378906 C 51.589844 6.34375 52.246094 6.382812 52.886719 6.492188 C 53.527344 6.601562 54.152344 6.785156 54.75 7.035156 L 54.871094 7.085938 L 54.855469 7.214844 C 54.773438 7.855469 54.617188 8.492188 54.390625 9.101562 C 54.167969 9.710938 53.875 10.296875 53.519531 10.839844 C 53.15625 11.394531 52.730469 11.90625 52.25 12.363281 C 51.757812 12.832031 51.207031 13.242188 50.613281 13.585938 C 50.019531 13.929688 49.386719 14.199219 48.734375 14.394531 C 48.101562 14.582031 47.445312 14.695312 46.78125 14.730469 C 46.132812 14.765625 45.480469 14.726562 44.835938 14.617188 C 44.199219 14.507812 43.570312 14.324219 42.972656 14.074219 Z M 54.496094 7.300781 C 52.121094 6.351562 49.5 6.539062 47.28125 7.820312 C 45.066406 9.097656 43.59375 11.277344 43.226562 13.808594 C 45.601562 14.757812 48.222656 14.570312 50.441406 13.289062 C 52.660156 12.007812 54.132812 9.832031 54.496094 7.300781 Z M 54.496094 7.300781 "/></g><path style=" stroke:none;fill-rule:nonzero;fill:#d4af37;fill-opacity:1;" d="M 42.921875 14.015625 L 42.871094 13.894531 C 42.621094 13.296875 42.4375 12.667969 42.328125 12.03125 C 42.214844 11.386719 42.179688 10.734375 42.214844 10.085938 C 42.25 9.425781 42.363281 8.769531 42.550781 8.132812 C 42.742188 7.480469 43.015625 6.847656 43.355469 6.253906 C 43.699219 5.660156 44.113281 5.109375 44.582031 4.617188 C 45.035156 4.136719 45.546875 3.710938 46.101562 3.351562 C 46.644531 2.996094 47.230469 2.699219 47.84375 2.476562 C 48.453125 2.25 49.085938 2.097656 49.730469 2.011719 L 49.859375 1.996094 L 49.910156 2.117188 C 50.160156 2.714844 50.339844 3.34375 50.453125 3.980469 C 50.5625 4.625 50.601562 5.277344 50.566406 5.925781 C 50.527344 6.585938 50.414062 7.242188 50.226562 7.878906 C 50.035156 8.53125 49.765625 9.160156 49.421875 9.757812 C 49.078125 10.351562 48.667969 10.902344 48.199219 11.394531 C 47.742188 11.875 47.230469 12.300781 46.675781 12.660156 C 46.132812 13.015625 45.546875 13.3125 44.933594 13.535156 C 44.328125 13.757812 43.691406 13.914062 43.050781 13.996094 Z M 49.644531 2.371094 C 47.113281 2.734375 44.933594 4.207031 43.652344 6.425781 C 42.375 8.644531 42.1875 11.265625 43.136719 13.640625 C 45.667969 13.273438 47.84375 11.804688 49.125 9.585938 C 50.40625 7.367188 50.589844 4.746094 49.644531 2.371094 Z M 49.644531 2.371094 "/><path style=" stroke:none;fill-rule:nonzero;fill:#d4af37;fill-opacity:1;" d="M 22.40625 55.308594 C 18.742188 50.273438 15.671875 51.34375 14.964844 51.683594 C 14.535156 51.707031 14.128906 51.824219 13.777344 52.019531 C 13.828125 52.015625 13.882812 52.015625 13.933594 52.015625 C 15.402344 52.015625 16.59375 53.160156 16.59375 54.574219 C 16.59375 55.527344 16.054688 56.355469 15.253906 56.796875 C 16.648438 56.71875 17.753906 55.605469 17.753906 54.242188 C 17.753906 53.878906 17.671875 53.53125 17.53125 53.21875 C 18.875 54.203125 19.890625 55.371094 20.496094 56.164062 C 21.289062 57.203125 22.238281 58.109375 23.328125 58.824219 C 27.058594 61.28125 29.425781 60.230469 29.425781 60.230469 C 27.664062 59.9375 26.074219 58.933594 24.898438 57.972656 C 23.953125 57.199219 23.125 56.292969 22.40625 55.308594 "/><g clip-rule="nonzero" clip-path="url(#8d801ad72b)"><path style=" stroke:none;fill-rule:nonzero;fill:#d4af37;fill-opacity:1;" d="M 18.914062 48.167969 C 18.914062 48.167969 14.8125 44.460938 11.464844 47.089844 C 8.117188 49.714844 9.085938 52.414062 9.085938 52.414062 C 9.085938 52.414062 10.996094 46.117188 18.914062 48.167969 "/></g><path style=" stroke:none;fill-rule:nonzero;fill:#d4af37;fill-opacity:1;" d="M 21.792969 49.429688 C 21.792969 49.429688 21.144531 40.609375 23.953125 38.449219 C 23.953125 38.449219 19.632812 40.320312 19.851562 45.179688 C 19.851562 45.179688 14.535156 42.625 10.804688 45.289062 C 10.804688 45.289062 18.15625 44.425781 21.792969 49.429688 "/><path style=" stroke:none;fill-rule:nonzero;fill:#d4af37;fill-opacity:1;" d="M 22.984375 45.035156 C 22.984375 43.515625 23.214844 42.050781 23.652344 40.675781 C 21.328125 44.863281 22.765625 51.445312 22.765625 51.445312 C 22.765625 51.445312 19.707031 48.707031 14.882812 48.707031 C 10.328125 48.707031 10.78125 53.648438 10.84375 54.199219 C 10.816406 54.335938 10.804688 54.476562 10.804688 54.621094 C 10.804688 55.835938 11.828125 56.824219 13.089844 56.824219 C 14.355469 56.824219 15.378906 55.835938 15.378906 54.621094 C 15.378906 53.402344 14.355469 52.414062 13.089844 52.414062 C 12.84375 52.414062 12.605469 52.453125 12.378906 52.523438 C 12.6875 51.535156 13.53125 50.785156 14.566406 50.5625 C 16.40625 50.171875 19.769531 50.425781 23.640625 55.347656 C 28.320312 61.304688 35.742188 60.394531 38.535156 59.789062 C 38.371094 59.796875 38.210938 59.800781 38.046875 59.800781 C 29.726562 59.800781 22.984375 53.1875 22.984375 45.035156 "/><path style=" stroke:none;fill-rule:nonzero;fill:#d4af37;fill-opacity:1;" d="M 69.601562 54.574219 C 69.601562 53.160156 70.792969 52.015625 72.257812 52.015625 C 72.3125 52.015625 72.367188 52.015625 72.417969 52.019531 C 72.066406 51.824219 71.660156 51.707031 71.230469 51.683594 C 70.523438 51.34375 67.453125 50.273438 63.789062 55.308594 C 63.070312 56.292969 62.242188 57.199219 61.296875 57.972656 C 60.121094 58.933594 58.53125 59.9375 56.769531 60.230469 C 56.769531 60.230469 59.136719 61.28125 62.867188 58.824219 C 63.957031 58.109375 64.90625 57.203125 65.699219 56.164062 C 66.304688 55.371094 67.320312 54.203125 68.664062 53.21875 C 68.523438 53.53125 68.441406 53.878906 68.441406 54.242188 C 68.441406 55.605469 69.546875 56.71875 70.941406 56.796875 C 70.140625 56.355469 69.601562 55.527344 69.601562 54.574219 "/><path style=" stroke:none;fill-rule:nonzero;fill:#d4af37;fill-opacity:1;" d="M 74.730469 47.089844 C 71.382812 44.460938 67.28125 48.167969 67.28125 48.167969 C 75.199219 46.117188 77.105469 52.414062 77.105469 52.414062 C 77.105469 52.414062 78.078125 49.714844 74.730469 47.089844 "/><path style=" stroke:none;fill-rule:nonzero;fill:#d4af37;fill-opacity:1;" d="M 64.402344 49.429688 C 68.035156 44.425781 75.390625 45.289062 75.390625 45.289062 C 71.660156 42.625 66.34375 45.179688 66.34375 45.179688 C 66.5625 40.320312 62.242188 38.449219 62.242188 38.449219 C 65.050781 40.609375 64.402344 49.429688 64.402344 49.429688 "/><path style=" stroke:none;fill-rule:nonzero;fill:#d4af37;fill-opacity:1;" d="M 71.3125 48.707031 C 66.488281 48.707031 63.429688 51.445312 63.429688 51.445312 C 63.429688 51.445312 64.867188 44.863281 62.542969 40.675781 C 62.976562 42.050781 63.210938 43.515625 63.210938 45.035156 C 63.210938 53.1875 56.46875 59.800781 48.148438 59.800781 C 47.984375 59.800781 47.820312 59.796875 47.660156 59.789062 C 50.453125 60.394531 57.871094 61.304688 62.554688 55.347656 C 66.425781 50.425781 69.789062 50.171875 71.625 50.5625 C 72.664062 50.785156 73.503906 51.535156 73.8125 52.523438 C 73.589844 52.453125 73.351562 52.414062 73.105469 52.414062 C 71.839844 52.414062 70.816406 53.402344 70.816406 54.621094 C 70.816406 55.835938 71.839844 56.824219 73.105469 56.824219 C 74.367188 56.824219 75.390625 55.835938 75.390625 54.621094 C 75.390625 54.476562 75.378906 54.335938 75.347656 54.199219 C 75.414062 53.648438 75.863281 48.707031 71.3125 48.707031 "/><path style=" stroke:none;fill-rule:nonzero;fill:#d4af37;fill-opacity:1;" d="M 46.667969 56.058594 C 50.039062 53.519531 52.214844 49.523438 52.214844 45.035156 C 52.214844 40.085938 49.578125 35.742188 45.605469 33.285156 C 46.039062 33.234375 46.484375 33.210938 46.929688 33.210938 C 53.367188 33.210938 58.585938 38.324219 58.585938 44.636719 C 58.585938 50.945312 53.367188 56.058594 46.929688 56.058594 C 46.84375 56.058594 46.753906 56.058594 46.667969 56.058594 Z M 35.273438 44.636719 C 35.273438 40.078125 38 36.140625 41.9375 34.308594 C 47.085938 35.492188 50.921875 40.023438 50.921875 45.429688 C 50.921875 49.988281 48.195312 53.925781 44.257812 55.757812 C 39.109375 54.574219 35.273438 50.042969 35.273438 44.636719 Z M 39.265625 56.859375 C 32.828125 56.859375 27.609375 51.742188 27.609375 45.429688 C 27.609375 39.121094 32.828125 34.007812 39.265625 34.007812 C 39.351562 34.007812 39.441406 34.007812 39.527344 34.007812 C 36.15625 36.546875 33.980469 40.542969 33.980469 45.035156 C 33.980469 49.980469 36.617188 54.324219 40.589844 56.785156 C 40.15625 56.832031 39.710938 56.859375 39.265625 56.859375 Z M 62.316406 45.035156 C 62.316406 37.363281 55.972656 31.144531 48.148438 31.144531 C 46.367188 31.144531 44.667969 31.464844 43.097656 32.054688 C 41.527344 31.464844 39.828125 31.144531 38.046875 31.144531 C 30.222656 31.144531 23.878906 37.363281 23.878906 45.035156 C 23.878906 52.703125 30.222656 58.921875 38.046875 58.921875 C 39.828125 58.921875 41.527344 58.601562 43.097656 58.011719 C 44.667969 58.601562 46.367188 58.921875 48.148438 58.921875 C 55.972656 58.921875 62.316406 52.703125 62.316406 45.035156 "/><path style=" stroke:none;fill-rule:nonzero;fill:#d4af37;fill-opacity:1;" d="M 43.097656 31.191406 C 43.210938 31.152344 43.328125 31.113281 43.445312 31.074219 L 43.445312 26.398438 L 39.097656 26.398438 L 39.097656 30.371094 C 40.46875 30.464844 41.808594 30.738281 43.097656 31.191406 "/><path style=" stroke:none;fill-rule:nonzero;fill:#d4af37;fill-opacity:1;" d="M 44.523438 30.769531 C 45.367188 30.5625 46.226562 30.429688 47.09375 30.371094 L 47.09375 26.398438 L 44.523438 26.398438 L 44.523438 30.769531 "/><g clip-rule="nonzero" clip-path="url(#12395dbd3c)"><path style=" stroke:none;fill-rule:nonzero;fill:#d4af37;fill-opacity:1;" d="M 41.011719 21.605469 C 40.257812 21.605469 39.644531 20.992188 39.644531 20.238281 C 39.644531 19.484375 40.257812 18.871094 41.011719 18.871094 C 41.769531 18.871094 42.382812 19.484375 42.382812 20.238281 C 42.382812 20.992188 41.769531 21.605469 41.011719 21.605469 Z M 44.523438 17.882812 L 39.351562 17.882812 C 38.449219 17.882812 37.714844 18.613281 37.714844 19.515625 L 37.714844 25.78125 L 44.523438 25.78125 L 44.523438 17.882812 "/></g><g clip-rule="nonzero" clip-path="url(#3edb4da9fe)"><path style=" stroke:none;fill-rule:nonzero;fill:#d4af37;fill-opacity:1;" d="M 48.476562 19.515625 C 48.476562 18.613281 47.746094 17.882812 46.84375 17.882812 L 45.605469 17.882812 L 45.605469 25.78125 L 48.476562 25.78125 L 48.476562 19.515625 "/></g><path style=" stroke:none;fill-rule:nonzero;fill:#d4af37;fill-opacity:1;" d="M 41.011719 19.519531 C 40.617188 19.519531 40.292969 19.839844 40.292969 20.238281 C 40.292969 20.636719 40.617188 20.957031 41.011719 20.957031 C 41.410156 20.957031 41.734375 20.636719 41.734375 20.238281 C 41.734375 19.839844 41.410156 19.519531 41.011719 19.519531 "/><g style="fill:#d4af37;fill-opacity:1;"><g transform="translate(85.303497, 58.484464)"><path style="stroke:none" d="M 26.609375 -22.09375 C 26.609375 -19.976562 25.992188 -18.203125 24.765625 -16.765625 C 23.546875 -15.335938 21.597656 -14.382812 18.921875 -13.90625 L 27.796875 -3.71875 C 28.410156 -3 29.140625 -2.453125 29.984375 -2.078125 C 30.828125 -1.710938 31.679688 -1.53125 32.546875 -1.53125 L 32.546875 0 L 23.46875 0 L 13.984375 -11.640625 C 13.335938 -12.410156 12.78125 -12.925781 12.3125 -13.1875 C 11.84375 -13.457031 11.398438 -13.59375 10.984375 -13.59375 L 10.984375 -6.09375 C 10.984375 -5.144531 11.046875 -4.367188 11.171875 -3.765625 C 11.304688 -3.171875 11.5625 -2.707031 11.9375 -2.375 C 12.320312 -2.039062 12.878906 -1.816406 13.609375 -1.703125 C 14.335938 -1.585938 15.316406 -1.53125 16.546875 -1.53125 L 16.546875 0 L 1.34375 0 L 1.34375 -1.53125 C 2.1875 -1.53125 2.867188 -1.585938 3.390625 -1.703125 C 3.910156 -1.816406 4.316406 -2.03125 4.609375 -2.34375 C 4.910156 -2.664062 5.109375 -3.113281 5.203125 -3.6875 C 5.304688 -4.269531 5.359375 -5.003906 5.359375 -5.890625 L 5.359375 -23.59375 C 5.359375 -24.488281 5.316406 -25.207031 5.234375 -25.75 C 5.160156 -26.300781 4.992188 -26.734375 4.734375 -27.046875 C 4.484375 -27.367188 4.125 -27.585938 3.65625 -27.703125 C 3.1875 -27.816406 2.554688 -27.898438 1.765625 -27.953125 L 1.765625 -29.484375 L 15.015625 -29.484375 C 18.710938 -29.484375 21.566406 -28.832031 23.578125 -27.53125 C 25.597656 -26.226562 26.609375 -24.414062 26.609375 -22.09375 Z M 10.984375 -15.890625 L 13.484375 -15.890625 C 15.878906 -15.890625 17.671875 -16.351562 18.859375 -17.28125 C 20.046875 -18.21875 20.640625 -19.757812 20.640625 -21.90625 C 20.640625 -23.539062 20.140625 -24.851562 19.140625 -25.84375 C 18.148438 -26.84375 16.773438 -27.34375 15.015625 -27.34375 L 11.6875 -27.34375 C 11.21875 -27.34375 10.984375 -27.125 10.984375 -26.6875 Z M 10.984375 -15.890625 "/></g></g><g style="fill:#d4af37;fill-opacity:1;"><g transform="translate(116.514042, 58.484464)"><path style="stroke:none" d="M 15.046875 0 L 1.375 0 L 1.375 -1.53125 C 2.25 -1.550781 2.945312 -1.628906 3.46875 -1.765625 C 3.988281 -1.910156 4.390625 -2.175781 4.671875 -2.5625 C 4.953125 -2.945312 5.144531 -3.488281 5.25 -4.1875 C 5.351562 -4.894531 5.40625 -5.847656 5.40625 -7.046875 L 5.40625 -22.4375 C 5.40625 -23.507812 5.359375 -24.394531 5.265625 -25.09375 C 5.171875 -25.800781 4.992188 -26.359375 4.734375 -26.765625 C 4.484375 -27.171875 4.125 -27.457031 3.65625 -27.625 C 3.1875 -27.789062 2.554688 -27.898438 1.765625 -27.953125 L 1.765625 -29.484375 L 14.671875 -29.484375 L 14.671875 -27.953125 C 13.878906 -27.898438 13.242188 -27.789062 12.765625 -27.625 C 12.296875 -27.457031 11.929688 -27.171875 11.671875 -26.765625 C 11.421875 -26.359375 11.25 -25.800781 11.15625 -25.09375 C 11.070312 -24.394531 11.03125 -23.507812 11.03125 -22.4375 L 11.03125 -7.046875 C 11.03125 -5.847656 11.070312 -4.894531 11.15625 -4.1875 C 11.25 -3.488281 11.441406 -2.945312 11.734375 -2.5625 C 12.023438 -2.175781 12.429688 -1.910156 12.953125 -1.765625 C 13.484375 -1.628906 14.179688 -1.550781 15.046875 -1.53125 Z M 15.046875 0 "/></g></g><g style="fill:#d4af37;fill-opacity:1;"><g transform="translate(132.942664, 58.484464)"><path style="stroke:none" d="M 31.21875 -21.0625 L 29.5625 -21.0625 C 29.488281 -22.3125 29.300781 -23.347656 29 -24.171875 C 28.707031 -25.003906 28.296875 -25.671875 27.765625 -26.171875 C 27.234375 -26.671875 26.582031 -27.015625 25.8125 -27.203125 C 25.039062 -27.398438 24.144531 -27.5 23.125 -27.5 C 22.132812 -27.5 21.335938 -27.476562 20.734375 -27.4375 C 20.140625 -27.394531 19.679688 -27.328125 19.359375 -27.234375 C 19.035156 -27.148438 18.820312 -27.03125 18.71875 -26.875 C 18.625 -26.726562 18.578125 -26.539062 18.578125 -26.3125 L 18.578125 -6.25 C 18.578125 -5.425781 18.632812 -4.71875 18.75 -4.125 C 18.863281 -3.539062 19.097656 -3.0625 19.453125 -2.6875 C 19.804688 -2.320312 20.328125 -2.039062 21.015625 -1.84375 C 21.710938 -1.65625 22.625 -1.550781 23.75 -1.53125 L 23.75 0 L 7.703125 0 L 7.703125 -1.53125 C 8.847656 -1.550781 9.765625 -1.65625 10.453125 -1.84375 C 11.140625 -2.039062 11.664062 -2.320312 12.03125 -2.6875 C 12.40625 -3.0625 12.648438 -3.539062 12.765625 -4.125 C 12.878906 -4.71875 12.9375 -5.425781 12.9375 -6.25 L 12.9375 -26.3125 C 12.9375 -26.539062 12.890625 -26.726562 12.796875 -26.875 C 12.710938 -27.03125 12.53125 -27.148438 12.25 -27.234375 C 11.96875 -27.328125 11.566406 -27.394531 11.046875 -27.4375 C 10.523438 -27.476562 9.84375 -27.5 9 -27.5 C 8.082031 -27.5 7.203125 -27.453125 6.359375 -27.359375 C 5.515625 -27.273438 4.769531 -27.019531 4.125 -26.59375 C 3.488281 -26.175781 2.972656 -25.539062 2.578125 -24.6875 C 2.179688 -23.832031 1.972656 -22.625 1.953125 -21.0625 L 0.453125 -21.0625 L 0.84375 -29.484375 L 30.828125 -29.484375 Z M 31.21875 -21.0625 "/></g></g><g style="fill:#d4af37;fill-opacity:1;"><g transform="translate(164.612749, 58.484464)"><path style="stroke:none" d="M 28.984375 -11.875 C 28.984375 -9.695312 28.75 -7.835938 28.28125 -6.296875 C 27.8125 -4.753906 27.078125 -3.484375 26.078125 -2.484375 C 25.085938 -1.492188 23.804688 -0.765625 22.234375 -0.296875 C 20.660156 0.160156 18.773438 0.390625 16.578125 0.390625 C 12.472656 0.390625 9.46875 -0.46875 7.5625 -2.1875 C 5.65625 -3.914062 4.703125 -6.671875 4.703125 -10.453125 L 4.703125 -20.953125 C 4.703125 -21.941406 4.691406 -22.773438 4.671875 -23.453125 C 4.648438 -24.128906 4.613281 -24.695312 4.5625 -25.15625 C 4.507812 -25.613281 4.4375 -25.988281 4.34375 -26.28125 C 4.257812 -26.582031 4.148438 -26.832031 4.015625 -27.03125 C 3.785156 -27.394531 3.453125 -27.640625 3.015625 -27.765625 C 2.585938 -27.890625 1.925781 -27.953125 1.03125 -27.953125 L 1.03125 -29.484375 L 14.78125 -29.484375 L 14.78125 -27.953125 C 13.707031 -27.953125 12.914062 -27.894531 12.40625 -27.78125 C 11.894531 -27.664062 11.5 -27.441406 11.21875 -27.109375 C 11.039062 -26.910156 10.894531 -26.660156 10.78125 -26.359375 C 10.664062 -26.066406 10.578125 -25.6875 10.515625 -25.21875 C 10.453125 -24.75 10.40625 -24.164062 10.375 -23.46875 C 10.351562 -22.78125 10.34375 -21.941406 10.34375 -20.953125 L 10.34375 -10.921875 C 10.34375 -8.003906 10.960938 -5.847656 12.203125 -4.453125 C 13.441406 -3.066406 15.347656 -2.375 17.921875 -2.375 C 23.179688 -2.375 25.8125 -5.296875 25.8125 -11.140625 L 25.8125 -19.984375 C 25.8125 -21.054688 25.789062 -21.972656 25.75 -22.734375 C 25.71875 -23.503906 25.65625 -24.15625 25.5625 -24.6875 C 25.46875 -25.226562 25.351562 -25.675781 25.21875 -26.03125 C 25.082031 -26.394531 24.910156 -26.691406 24.703125 -26.921875 C 24.347656 -27.273438 23.890625 -27.535156 23.328125 -27.703125 C 22.765625 -27.867188 21.984375 -27.953125 20.984375 -27.953125 L 20.984375 -29.484375 L 33.390625 -29.484375 L 33.390625 -27.953125 C 32.453125 -27.953125 31.726562 -27.878906 31.21875 -27.734375 C 30.707031 -27.597656 30.3125 -27.351562 30.03125 -27 C 29.820312 -26.769531 29.648438 -26.46875 29.515625 -26.09375 C 29.390625 -25.726562 29.289062 -25.269531 29.21875 -24.71875 C 29.144531 -24.164062 29.085938 -23.503906 29.046875 -22.734375 C 29.003906 -21.972656 28.984375 -21.054688 28.984375 -19.984375 Z M 28.984375 -11.875 "/></g></g><g style="fill:#d4af37;fill-opacity:1;"><g transform="translate(198.312477, 58.484464)"><path style="stroke:none" d="M 10.984375 -16.3125 C 12.617188 -16.3125 13.929688 -16.363281 14.921875 -16.46875 C 15.921875 -16.570312 16.695312 -16.78125 17.25 -17.09375 C 17.800781 -17.414062 18.191406 -17.882812 18.421875 -18.5 C 18.648438 -19.113281 18.828125 -19.941406 18.953125 -20.984375 L 20.375 -20.984375 L 20.375 -9.765625 L 18.953125 -9.765625 C 18.804688 -10.785156 18.601562 -11.601562 18.34375 -12.21875 C 18.09375 -12.832031 17.6875 -13.296875 17.125 -13.609375 C 16.5625 -13.929688 15.800781 -14.132812 14.84375 -14.21875 C 13.882812 -14.3125 12.597656 -14.359375 10.984375 -14.359375 L 10.984375 -6.46875 C 10.984375 -5.65625 11.09375 -4.96875 11.3125 -4.40625 C 11.53125 -3.84375 11.894531 -3.390625 12.40625 -3.046875 C 12.914062 -2.703125 13.59375 -2.457031 14.4375 -2.3125 C 15.28125 -2.175781 16.316406 -2.109375 17.546875 -2.109375 C 18.992188 -2.109375 20.222656 -2.207031 21.234375 -2.40625 C 22.242188 -2.613281 23.078125 -2.972656 23.734375 -3.484375 C 24.398438 -3.992188 24.9375 -4.675781 25.34375 -5.53125 C 25.757812 -6.382812 26.109375 -7.460938 26.390625 -8.765625 L 27.921875 -8.765625 L 27.3125 0 L 1.34375 0 L 1.34375 -1.53125 C 2.1875 -1.550781 2.875 -1.625 3.40625 -1.75 C 3.945312 -1.882812 4.359375 -2.101562 4.640625 -2.40625 C 4.921875 -2.71875 5.109375 -3.15625 5.203125 -3.71875 C 5.304688 -4.28125 5.359375 -5.003906 5.359375 -5.890625 L 5.359375 -23.59375 C 5.359375 -24.488281 5.3125 -25.207031 5.21875 -25.75 C 5.132812 -26.300781 4.960938 -26.734375 4.703125 -27.046875 C 4.453125 -27.367188 4.085938 -27.585938 3.609375 -27.703125 C 3.140625 -27.816406 2.523438 -27.898438 1.765625 -27.953125 L 1.765625 -29.484375 L 25.96875 -29.484375 L 26.234375 -21.984375 L 24.59375 -21.984375 C 24.4375 -23.054688 24.191406 -23.941406 23.859375 -24.640625 C 23.523438 -25.347656 23.0625 -25.910156 22.46875 -26.328125 C 21.882812 -26.753906 21.125 -27.046875 20.1875 -27.203125 C 19.257812 -27.367188 18.125 -27.453125 16.78125 -27.453125 L 12.453125 -27.453125 C 11.785156 -27.453125 11.375 -27.367188 11.21875 -27.203125 C 11.0625 -27.046875 10.984375 -26.660156 10.984375 -26.046875 Z M 10.984375 -16.3125 "/></g></g><g style="fill:#d4af37;fill-opacity:1;"><g transform="translate(227.569967, 58.484464)"><path style="stroke:none" d="M 27.734375 0 L 1.34375 0 L 1.34375 -1.53125 C 2.1875 -1.550781 2.875 -1.625 3.40625 -1.75 C 3.945312 -1.882812 4.359375 -2.101562 4.640625 -2.40625 C 4.921875 -2.71875 5.109375 -3.15625 5.203125 -3.71875 C 5.304688 -4.28125 5.359375 -5.003906 5.359375 -5.890625 L 5.359375 -23.59375 C 5.359375 -24.488281 5.3125 -25.207031 5.21875 -25.75 C 5.132812 -26.300781 4.960938 -26.734375 4.703125 -27.046875 C 4.453125 -27.367188 4.085938 -27.585938 3.609375 -27.703125 C 3.140625 -27.816406 2.523438 -27.898438 1.765625 -27.953125 L 1.765625 -29.484375 L 14.96875 -29.484375 L 14.96875 -27.953125 C 14.101562 -27.929688 13.410156 -27.851562 12.890625 -27.71875 C 12.367188 -27.59375 11.96875 -27.363281 11.6875 -27.03125 C 11.40625 -26.707031 11.21875 -26.25 11.125 -25.65625 C 11.03125 -25.070312 10.984375 -24.296875 10.984375 -23.328125 L 10.984375 -7.28125 C 10.984375 -6.207031 11.09375 -5.332031 11.3125 -4.65625 C 11.53125 -3.976562 11.90625 -3.453125 12.4375 -3.078125 C 12.976562 -2.710938 13.695312 -2.457031 14.59375 -2.3125 C 15.488281 -2.175781 16.597656 -2.109375 17.921875 -2.109375 C 19.398438 -2.109375 20.632812 -2.195312 21.625 -2.375 C 22.625 -2.550781 23.460938 -2.890625 24.140625 -3.390625 C 24.816406 -3.890625 25.359375 -4.554688 25.765625 -5.390625 C 26.179688 -6.234375 26.53125 -7.332031 26.8125 -8.6875 L 28.34375 -8.6875 Z M 27.734375 0 "/></g></g><g style="fill:#d4af37;fill-opacity:1;"><g transform="translate(9.952174, 88.266059)"><path style="stroke:none" d="M 1.40625 0 L 1.40625 -0.359375 C 1.832031 -0.484375 2.125 -0.757812 2.28125 -1.1875 C 2.4375 -1.613281 2.515625 -2.390625 2.515625 -3.515625 L 2.515625 -15.890625 C 2.515625 -17.023438 2.4375 -17.800781 2.28125 -18.21875 C 2.125 -18.632812 1.832031 -18.910156 1.40625 -19.046875 L 1.40625 -19.40625 L 8.03125 -19.40625 C 9.9375 -19.40625 11.5625 -19.128906 12.90625 -18.578125 C 14.257812 -18.035156 15.359375 -17.3125 16.203125 -16.40625 C 17.054688 -15.5 17.679688 -14.492188 18.078125 -13.390625 C 18.484375 -12.296875 18.6875 -11.1875 18.6875 -10.0625 C 18.695312 -8.125 18.289062 -6.394531 17.46875 -4.875 C 16.65625 -3.363281 15.492188 -2.171875 13.984375 -1.296875 C 12.472656 -0.429688 10.703125 0 8.671875 0 Z M 4.796875 -2.4375 C 4.796875 -1.789062 4.90625 -1.289062 5.125 -0.9375 C 5.34375 -0.59375 5.832031 -0.421875 6.59375 -0.421875 L 8.625 -0.421875 C 11.039062 -0.421875 12.898438 -1.113281 14.203125 -2.5 C 15.503906 -3.894531 16.15625 -6.046875 16.15625 -8.953125 C 16.15625 -10.796875 15.796875 -12.472656 15.078125 -13.984375 C 14.359375 -15.503906 13.296875 -16.71875 11.890625 -17.625 C 10.484375 -18.53125 8.75 -18.984375 6.6875 -18.984375 L 4.796875 -18.984375 Z M 4.796875 -2.4375 "/></g></g><g style="fill:#d4af37;fill-opacity:1;"><g transform="translate(36.698537, 88.266059)"><path style="stroke:none" d="M 1.40625 0 L 1.40625 -0.359375 C 1.832031 -0.484375 2.125 -0.757812 2.28125 -1.1875 C 2.4375 -1.613281 2.515625 -2.390625 2.515625 -3.515625 L 2.515625 -15.890625 C 2.515625 -17.023438 2.4375 -17.800781 2.28125 -18.21875 C 2.125 -18.632812 1.832031 -18.910156 1.40625 -19.046875 L 1.40625 -19.40625 L 14.296875 -19.40625 L 14.609375 -15.796875 L 14.296875 -15.71875 C 13.816406 -16.9375 13.144531 -17.785156 12.28125 -18.265625 C 11.425781 -18.742188 10.289062 -18.984375 8.875 -18.984375 L 4.796875 -18.984375 L 4.796875 -10.59375 L 8.34375 -10.59375 C 9.394531 -10.59375 10.210938 -10.660156 10.796875 -10.796875 C 11.378906 -10.929688 11.800781 -11.140625 12.0625 -11.421875 C 12.332031 -11.710938 12.523438 -12.0625 12.640625 -12.46875 L 12.96875 -12.46875 L 12.96875 -8.28125 L 12.640625 -8.28125 C 12.523438 -8.707031 12.332031 -9.054688 12.0625 -9.328125 C 11.800781 -9.609375 11.378906 -9.816406 10.796875 -9.953125 C 10.210938 -10.097656 9.394531 -10.171875 8.34375 -10.171875 L 4.796875 -10.171875 L 4.796875 -1.65625 C 4.796875 -0.832031 5.210938 -0.421875 6.046875 -0.421875 L 9.640625 -0.421875 C 10.972656 -0.421875 12.070312 -0.648438 12.9375 -1.109375 C 13.8125 -1.566406 14.5 -2.441406 15 -3.734375 L 15.296875 -3.6875 L 15.078125 0 Z M 1.40625 0 "/></g></g><g style="fill:#d4af37;fill-opacity:1;"><g transform="translate(59.675705, 88.266059)"><path style="stroke:none" d="M 7.90625 0.28125 C 6.4375 0.28125 5.117188 0.0664062 3.953125 -0.359375 C 2.796875 -0.785156 1.894531 -1.226562 1.25 -1.6875 L 1.109375 -5.546875 L 1.40625 -5.59375 C 1.78125 -4.632812 2.265625 -3.742188 2.859375 -2.921875 C 3.460938 -2.097656 4.226562 -1.441406 5.15625 -0.953125 C 6.082031 -0.460938 7.179688 -0.21875 8.453125 -0.21875 C 9.191406 -0.21875 9.875 -0.367188 10.5 -0.671875 C 11.132812 -0.984375 11.640625 -1.414062 12.015625 -1.96875 C 12.390625 -2.519531 12.578125 -3.164062 12.578125 -3.90625 C 12.578125 -4.613281 12.390625 -5.222656 12.015625 -5.734375 C 11.648438 -6.253906 11.171875 -6.707031 10.578125 -7.09375 C 9.992188 -7.476562 9.375 -7.8125 8.71875 -8.09375 C 8.0625 -8.382812 7.4375 -8.648438 6.84375 -8.890625 C 5.757812 -9.335938 4.8125 -9.785156 4 -10.234375 C 3.195312 -10.691406 2.578125 -11.238281 2.140625 -11.875 C 1.710938 -12.507812 1.5 -13.316406 1.5 -14.296875 C 1.5 -15.390625 1.78125 -16.328125 2.34375 -17.109375 C 2.90625 -17.898438 3.691406 -18.507812 4.703125 -18.9375 C 5.722656 -19.375 6.910156 -19.59375 8.265625 -19.59375 C 9.515625 -19.59375 10.59375 -19.453125 11.5 -19.171875 C 12.40625 -18.898438 13.128906 -18.617188 13.671875 -18.328125 L 13.78125 -15.109375 L 13.5 -15.03125 C 12.976562 -16.226562 12.222656 -17.210938 11.234375 -17.984375 C 10.242188 -18.765625 8.957031 -19.15625 7.375 -19.15625 C 6.632812 -19.15625 5.945312 -19.007812 5.3125 -18.71875 C 4.675781 -18.4375 4.164062 -18.023438 3.78125 -17.484375 C 3.40625 -16.953125 3.21875 -16.289062 3.21875 -15.5 C 3.21875 -14.851562 3.375 -14.285156 3.6875 -13.796875 C 4 -13.316406 4.410156 -12.898438 4.921875 -12.546875 C 5.441406 -12.203125 6.007812 -11.894531 6.625 -11.625 C 7.238281 -11.351562 7.835938 -11.097656 8.421875 -10.859375 C 9.460938 -10.453125 10.429688 -10.019531 11.328125 -9.5625 C 12.234375 -9.101562 12.96875 -8.539062 13.53125 -7.875 C 14.101562 -7.207031 14.390625 -6.347656 14.390625 -5.296875 C 14.390625 -4.148438 14.070312 -3.15625 13.4375 -2.3125 C 12.8125 -1.46875 12.003906 -0.820312 11.015625 -0.375 C 10.023438 0.0625 8.988281 0.28125 7.90625 0.28125 Z M 7.90625 0.28125 "/></g></g><g style="fill:#d4af37;fill-opacity:1;"><g transform="translate(81.59972, 88.266059)"><path style="stroke:none" d=""/></g></g><g style="fill:#d4af37;fill-opacity:1;"><g transform="translate(94.073044, 88.266059)"><path style="stroke:none" d="M 1.40625 0 L 1.40625 -0.359375 C 1.832031 -0.484375 2.125 -0.757812 2.28125 -1.1875 C 2.4375 -1.613281 2.515625 -2.390625 2.515625 -3.515625 L 2.515625 -15.890625 C 2.515625 -17.023438 2.4375 -17.800781 2.28125 -18.21875 C 2.125 -18.632812 1.832031 -18.910156 1.40625 -19.046875 L 1.40625 -19.40625 L 7.046875 -19.40625 C 8.960938 -19.40625 10.46875 -19.132812 11.5625 -18.59375 C 12.664062 -18.0625 13.445312 -17.378906 13.90625 -16.546875 C 14.375 -15.710938 14.609375 -14.84375 14.609375 -13.9375 C 14.609375 -12.09375 13.945312 -10.585938 12.625 -9.421875 C 11.300781 -8.253906 9.347656 -7.671875 6.765625 -7.671875 L 4.796875 -7.671875 L 4.796875 -3.515625 C 4.796875 -2.390625 4.875 -1.613281 5.03125 -1.1875 C 5.1875 -0.757812 5.476562 -0.484375 5.90625 -0.359375 L 5.90625 0 Z M 4.796875 -8.09375 L 6.703125 -8.09375 C 8.484375 -8.09375 9.835938 -8.550781 10.765625 -9.46875 C 11.703125 -10.394531 12.171875 -11.675781 12.171875 -13.3125 C 12.171875 -14.300781 11.960938 -15.222656 11.546875 -16.078125 C 11.128906 -16.941406 10.46875 -17.640625 9.5625 -18.171875 C 8.65625 -18.710938 7.453125 -18.984375 5.953125 -18.984375 C 5.773438 -18.984375 5.578125 -18.976562 5.359375 -18.96875 C 5.148438 -18.957031 4.960938 -18.945312 4.796875 -18.9375 Z M 4.796875 -8.09375 "/></g></g><g style="fill:#d4af37;fill-opacity:1;"><g transform="translate(116.024771, 88.266059)"><path style="stroke:none" d="M -0.46875 0 L -0.46875 -0.359375 C -0.0820312 -0.484375 0.289062 -0.734375 0.65625 -1.109375 C 1.03125 -1.492188 1.429688 -2.210938 1.859375 -3.265625 L 7.3125 -16.796875 C 7.476562 -17.242188 7.460938 -17.675781 7.265625 -18.09375 L 7.015625 -18.6875 L 9.09375 -19.625 L 15.90625 -3.25 C 16.332031 -2.207031 16.71875 -1.492188 17.0625 -1.109375 C 17.40625 -0.734375 17.722656 -0.484375 18.015625 -0.359375 L 18.015625 0 L 13.71875 0 L 13.71875 -0.359375 C 14.144531 -0.484375 14.320312 -0.734375 14.25 -1.109375 C 14.175781 -1.492188 13.914062 -2.207031 13.46875 -3.25 L 11.78125 -7.3125 L 3.96875 -7.3125 L 2.328125 -3.265625 C 1.628906 -1.515625 1.738281 -0.546875 2.65625 -0.359375 L 2.65625 0 Z M 4.125 -7.734375 L 11.609375 -7.734375 L 7.8125 -16.859375 Z M 4.125 -7.734375 "/></g></g><g style="fill:#d4af37;fill-opacity:1;"><g transform="translate(140.443107, 88.266059)"><path style="stroke:none" d="M 15.515625 0.1875 C 14.816406 0.1875 14.265625 0.0195312 13.859375 -0.3125 C 13.453125 -0.65625 13.09375 -1.15625 12.78125 -1.8125 C 12.476562 -2.46875 12.125 -3.273438 11.71875 -4.234375 C 11.3125 -5.203125 10.96875 -6.046875 10.6875 -6.765625 C 10.414062 -7.484375 10.117188 -8.082031 9.796875 -8.5625 C 9.472656 -9.039062 9.0625 -9.398438 8.5625 -9.640625 C 8.0625 -9.878906 7.394531 -10 6.5625 -10 L 4.796875 -10 L 4.796875 -3.515625 C 4.796875 -2.390625 4.875 -1.613281 5.03125 -1.1875 C 5.1875 -0.757812 5.476562 -0.484375 5.90625 -0.359375 L 5.90625 0 L 1.40625 0 L 1.40625 -0.359375 C 1.832031 -0.484375 2.125 -0.757812 2.28125 -1.1875 C 2.4375 -1.613281 2.515625 -2.390625 2.515625 -3.515625 L 2.515625 -15.890625 C 2.515625 -17.023438 2.4375 -17.800781 2.28125 -18.21875 C 2.125 -18.632812 1.832031 -18.910156 1.40625 -19.046875 L 1.40625 -19.40625 L 6.875 -19.40625 C 8.757812 -19.40625 10.226562 -19.210938 11.28125 -18.828125 C 12.332031 -18.453125 13.078125 -17.941406 13.515625 -17.296875 C 13.953125 -16.648438 14.171875 -15.910156 14.171875 -15.078125 C 14.171875 -13.785156 13.707031 -12.679688 12.78125 -11.765625 C 11.851562 -10.847656 10.484375 -10.289062 8.671875 -10.09375 C 9.523438 -9.976562 10.21875 -9.785156 10.75 -9.515625 C 11.289062 -9.253906 11.734375 -8.894531 12.078125 -8.4375 C 12.429688 -7.988281 12.742188 -7.441406 13.015625 -6.796875 C 13.296875 -6.148438 13.601562 -5.398438 13.9375 -4.546875 C 14.382812 -3.429688 14.757812 -2.566406 15.0625 -1.953125 C 15.363281 -1.347656 15.644531 -0.921875 15.90625 -0.671875 C 16.164062 -0.429688 16.453125 -0.3125 16.765625 -0.3125 C 16.859375 -0.3125 16.9375 -0.3125 17 -0.3125 C 17.070312 -0.3125 17.144531 -0.316406 17.21875 -0.328125 L 17.21875 0 C 17.007812 0.0703125 16.742188 0.117188 16.421875 0.140625 C 16.097656 0.171875 15.796875 0.1875 15.515625 0.1875 Z M 4.796875 -10.421875 L 7.125 -10.421875 C 8.707031 -10.421875 9.882812 -10.796875 10.65625 -11.546875 C 11.425781 -12.296875 11.8125 -13.257812 11.8125 -14.4375 C 11.8125 -15.269531 11.617188 -16.023438 11.234375 -16.703125 C 10.859375 -17.390625 10.25 -17.941406 9.40625 -18.359375 C 8.570312 -18.773438 7.46875 -18.984375 6.09375 -18.984375 C 5.894531 -18.984375 5.679688 -18.976562 5.453125 -18.96875 C 5.234375 -18.957031 5.015625 -18.945312 4.796875 -18.9375 Z M 4.796875 -10.421875 "/></g></g><g style="fill:#d4af37;fill-opacity:1;"><g transform="translate(164.057722, 88.266059)"><path style="stroke:none" d="M 1.40625 0 L 1.40625 -0.359375 C 1.832031 -0.484375 2.125 -0.757812 2.28125 -1.1875 C 2.4375 -1.613281 2.515625 -2.390625 2.515625 -3.515625 L 2.515625 -15.890625 C 2.515625 -17.023438 2.4375 -17.800781 2.28125 -18.21875 C 2.125 -18.632812 1.832031 -18.910156 1.40625 -19.046875 L 1.40625 -19.40625 L 14.46875 -19.40625 L 14.71875 -16.5 L 14.40625 -16.40625 C 13.945312 -17.332031 13.375 -17.988281 12.6875 -18.375 C 12.007812 -18.757812 11.015625 -18.953125 9.703125 -18.953125 L 4.796875 -18.953125 L 4.796875 -10.84375 L 8.09375 -10.84375 C 9.144531 -10.84375 9.960938 -10.910156 10.546875 -11.046875 C 11.128906 -11.179688 11.550781 -11.382812 11.8125 -11.65625 C 12.082031 -11.9375 12.273438 -12.28125 12.390625 -12.6875 L 12.71875 -12.6875 L 12.71875 -8.484375 L 12.390625 -8.484375 C 12.273438 -8.910156 12.082031 -9.257812 11.8125 -9.53125 C 11.550781 -9.8125 11.128906 -10.023438 10.546875 -10.171875 C 9.960938 -10.316406 9.144531 -10.390625 8.09375 -10.390625 L 4.796875 -10.390625 L 4.796875 -3.515625 C 4.796875 -2.390625 4.875 -1.613281 5.03125 -1.1875 C 5.1875 -0.757812 5.476562 -0.484375 5.90625 -0.359375 L 5.90625 0 Z M 1.40625 0 "/></g></g><g style="fill:#d4af37;fill-opacity:1;"><g transform="translate(186.203457, 88.266059)"><path style="stroke:none" d="M 10 0.28125 C 9.007812 0.28125 8.046875 0.148438 7.109375 -0.109375 C 6.171875 -0.367188 5.332031 -0.785156 4.59375 -1.359375 C 3.863281 -1.929688 3.273438 -2.691406 2.828125 -3.640625 C 2.378906 -4.597656 2.15625 -5.769531 2.15625 -7.15625 L 2.15625 -15.890625 C 2.15625 -17.023438 2.078125 -17.800781 1.921875 -18.21875 C 1.765625 -18.632812 1.472656 -18.910156 1.046875 -19.046875 L 1.046875 -19.40625 L 5.546875 -19.40625 L 5.546875 -19.046875 C 5.140625 -18.910156 4.851562 -18.632812 4.6875 -18.21875 C 4.519531 -17.800781 4.4375 -17.023438 4.4375 -15.890625 L 4.4375 -7.3125 C 4.4375 -5.59375 4.722656 -4.21875 5.296875 -3.1875 C 5.867188 -2.164062 6.644531 -1.429688 7.625 -0.984375 C 8.601562 -0.535156 9.691406 -0.3125 10.890625 -0.3125 C 11.484375 -0.3125 12.101562 -0.421875 12.75 -0.640625 C 13.394531 -0.859375 14 -1.234375 14.5625 -1.765625 C 15.125 -2.304688 15.582031 -3.03125 15.9375 -3.9375 C 16.289062 -4.84375 16.46875 -5.96875 16.46875 -7.3125 L 16.46875 -14.78125 C 16.46875 -15.832031 16.390625 -16.644531 16.234375 -17.21875 C 16.085938 -17.800781 15.875 -18.222656 15.59375 -18.484375 C 15.320312 -18.742188 14.984375 -18.929688 14.578125 -19.046875 L 14.578125 -19.40625 L 18.015625 -19.40625 L 18.015625 -19.046875 C 17.609375 -18.910156 17.320312 -18.632812 17.15625 -18.21875 C 16.988281 -17.800781 16.90625 -17.023438 16.90625 -15.890625 L 16.90625 -7.40625 C 16.90625 -5.550781 16.59375 -4.0625 15.96875 -2.9375 C 15.351562 -1.8125 14.53125 -0.992188 13.5 -0.484375 C 12.46875 0.0234375 11.300781 0.28125 10 0.28125 Z M 10 0.28125 "/></g></g><g style="fill:#d4af37;fill-opacity:1;"><g transform="translate(211.674947, 88.266059)"><path style="stroke:none" d="M 1.390625 0 L 1.390625 -0.359375 C 1.816406 -0.484375 2.109375 -0.757812 2.265625 -1.1875 C 2.421875 -1.613281 2.5 -2.390625 2.5 -3.515625 L 2.5 -14.78125 C 2.5 -15.832031 2.429688 -16.644531 2.296875 -17.21875 C 2.171875 -17.800781 1.984375 -18.222656 1.734375 -18.484375 C 1.484375 -18.742188 1.171875 -18.929688 0.796875 -19.046875 L 0.796875 -19.40625 L 4.15625 -19.40625 L 11.390625 -7.453125 L 18.484375 -19.40625 L 21.625 -19.40625 L 21.625 -19.046875 C 21.25 -18.929688 20.9375 -18.742188 20.6875 -18.484375 C 20.4375 -18.222656 20.25 -17.800781 20.125 -17.21875 C 20 -16.644531 19.9375 -15.832031 19.9375 -14.78125 L 19.9375 -3.515625 C 19.9375 -2.390625 20.015625 -1.613281 20.171875 -1.1875 C 20.328125 -0.757812 20.613281 -0.484375 21.03125 -0.359375 L 21.03125 0 L 16.546875 0 L 16.546875 -0.359375 C 16.972656 -0.484375 17.265625 -0.757812 17.421875 -1.1875 C 17.578125 -1.613281 17.65625 -2.390625 17.65625 -3.515625 L 17.65625 -17.15625 L 10.609375 -5.265625 L 10.09375 -5.265625 L 3 -16.9375 L 3 -4.625 C 3 -3.570312 3.070312 -2.757812 3.21875 -2.1875 C 3.363281 -1.613281 3.570312 -1.191406 3.84375 -0.921875 C 4.125 -0.660156 4.46875 -0.472656 4.875 -0.359375 L 4.875 0 Z M 1.390625 0 "/></g></g><g style="fill:#d4af37;fill-opacity:1;"><g transform="translate(241.359073, 88.266059)"><path style="stroke:none" d="M 7.90625 0.28125 C 6.4375 0.28125 5.117188 0.0664062 3.953125 -0.359375 C 2.796875 -0.785156 1.894531 -1.226562 1.25 -1.6875 L 1.109375 -5.546875 L 1.40625 -5.59375 C 1.78125 -4.632812 2.265625 -3.742188 2.859375 -2.921875 C 3.460938 -2.097656 4.226562 -1.441406 5.15625 -0.953125 C 6.082031 -0.460938 7.179688 -0.21875 8.453125 -0.21875 C 9.191406 -0.21875 9.875 -0.367188 10.5 -0.671875 C 11.132812 -0.984375 11.640625 -1.414062 12.015625 -1.96875 C 12.390625 -2.519531 12.578125 -3.164062 12.578125 -3.90625 C 12.578125 -4.613281 12.390625 -5.222656 12.015625 -5.734375 C 11.648438 -6.253906 11.171875 -6.707031 10.578125 -7.09375 C 9.992188 -7.476562 9.375 -7.8125 8.71875 -8.09375 C 8.0625 -8.382812 7.4375 -8.648438 6.84375 -8.890625 C 5.757812 -9.335938 4.8125 -9.785156 4 -10.234375 C 3.195312 -10.691406 2.578125 -11.238281 2.140625 -11.875 C 1.710938 -12.507812 1.5 -13.316406 1.5 -14.296875 C 1.5 -15.390625 1.78125 -16.328125 2.34375 -17.109375 C 2.90625 -17.898438 3.691406 -18.507812 4.703125 -18.9375 C 5.722656 -19.375 6.910156 -19.59375 8.265625 -19.59375 C 9.515625 -19.59375 10.59375 -19.453125 11.5 -19.171875 C 12.40625 -18.898438 13.128906 -18.617188 13.671875 -18.328125 L 13.78125 -15.109375 L 13.5 -15.03125 C 12.976562 -16.226562 12.222656 -17.210938 11.234375 -17.984375 C 10.242188 -18.765625 8.957031 -19.15625 7.375 -19.15625 C 6.632812 -19.15625 5.945312 -19.007812 5.3125 -18.71875 C 4.675781 -18.4375 4.164062 -18.023438 3.78125 -17.484375 C 3.40625 -16.953125 3.21875 -16.289062 3.21875 -15.5 C 3.21875 -14.851562 3.375 -14.285156 3.6875 -13.796875 C 4 -13.316406 4.410156 -12.898438 4.921875 -12.546875 C 5.441406 -12.203125 6.007812 -11.894531 6.625 -11.625 C 7.238281 -11.351562 7.835938 -11.097656 8.421875 -10.859375 C 9.460938 -10.453125 10.429688 -10.019531 11.328125 -9.5625 C 12.234375 -9.101562 12.96875 -8.539062 13.53125 -7.875 C 14.101562 -7.207031 14.390625 -6.347656 14.390625 -5.296875 C 14.390625 -4.148438 14.070312 -3.15625 13.4375 -2.3125 C 12.8125 -1.46875 12.003906 -0.820312 11.015625 -0.375 C 10.023438 0.0625 8.988281 0.28125 7.90625 0.28125 Z M 7.90625 0.28125 "/></g></g></g></svg>